# xmcd CD database file
# Copyright (C) 1993-1997  Ti Kan
#
# Track frame offsets:
#	150
#	18312
#	30702
#	46117
#	59512
#	73277
#	84350
#	95887
#	109715
#	118015
#	134740
#	149782
#	172462
#	185690
#	207307
#	231910
#	244152
#	261992
#	277402
#	291555
#	306465
#	328652
#
# Disc length: 4560 seconds
#
# Revision: 1
# Processed by: cddbd v1.4b41PL1 Copyright (c) Steve Scherf et al.
# Submitted via: xmcd 2.2 PL1
#
DISCID=7911ce16
DTITLE=Jimi Hendrix - The Ultimate BBC Collection 1967
DYEAR=1900
DGENRE=
TTITLE0=Hey Joe
TTITLE1=Foxy Lady
TTITLE2=Stone Free
TTITLE3=Love or Confusion
TTITLE4=Purple Haze
TTITLE5=Killing Floor
TTITLE6=Fire
TTITLE7=The Wind Cries Mary
TTITLE8=Wild Thing
TTITLE9=Burning of the Midnight Lamp
TTITLE10=Jam #1
TTITLE11=Jam #2
TTITLE12=Little Miss Lover
TTITLE13=Drivin' South
TTITLE14=Experiencing The Blues
TTITLE15=Hound Dog
TTITLE16=All Along the Watchtower
TTITLE17=Can You Please Crawl Out Your Window
TTITLE18=Spanish Castle Magic
TTITLE19=Day Tripper
TTITLE20=Getting My Heart Back Together
TTITLE21=Wait Until Tomorrow
EXTD=
EXTT0=
EXTT1=
EXTT2=
EXTT3=
EXTT4=
EXTT5=
EXTT6=
EXTT7=
EXTT8=
EXTT9=
EXTT10=
EXTT11=
EXTT12=
EXTT13=
EXTT14=
EXTT15=
EXTT16=
EXTT17=
EXTT18=
EXTT19=
EXTT20=
EXTT21=
PLAYORDER=
